<svg width="80" height="80" viewBox="0 0 80 80" fill="none" xmlns="http://www.w3.org/2000/svg">
<path d="M65 80H38.1271C25.3512 80 15 66.9629 15 50.8719V30H65V80Z" fill="#FF7D85"/>
<path d="M65 25C65 21.717 64.3534 18.4661 63.097 15.4328C61.8406 12.3998 59.9992 9.64388 57.6778 7.32228C55.3562 5.00087 52.6002 3.15949 49.567 1.90308C46.5339 0.646657 43.283 7.21571e-07 39.9999 7.21571e-07C36.7168 7.21571e-07 33.4659 0.646657 30.4329 1.90308C27.3996 3.15949 24.6437 5.00087 22.3223 7.32228C20.0009 9.64388 18.1593 12.3998 16.9029 15.4328C15.6467 18.4661 15 21.717 15 25L39.9999 25L65 25Z" fill="#47BDFF"/>
</svg>
