<svg width="80" height="80" viewBox="0 0 80 80" fill="none" xmlns="http://www.w3.org/2000/svg">
<path d="M2 41C2 45.5963 2.96996 50.1476 4.8545 54.3938C6.73916 58.6403 9.50124 62.4986 12.9834 65.7485C16.4658 68.9988 20.5997 71.5767 25.1495 73.3357C29.6991 75.0947 34.5755 76 39.5001 76C44.4248 76 49.3011 75.0947 53.8507 73.3357C58.4006 71.5767 62.5344 68.9988 66.0166 65.7485C69.4987 62.4986 72.2611 58.6403 74.1457 54.3938C76.03 50.1476 77 45.5963 77 41H39.5001H2Z" fill="#FDC067"/>
<path d="M57.5 36C67.165 36 75 28.165 75 18.5C75 8.83502 67.165 1 57.5 1C47.835 1 40 8.83502 40 18.5C40 28.165 47.835 36 57.5 36Z" fill="#47BDFF"/>
</svg>
