<svg width="102" height="15" viewBox="0 0 102 15" fill="none" xmlns="http://www.w3.org/2000/svg">
<g clip-path="url(#clip0_5741_5856)">
<path d="M12.1381 14.5289C8.97656 14.8664 5.80547 14.8664 2.64397 14.5289C1.38334 14.3944 0.387621 13.3987 0.253077 12.1379C-0.084354 8.97644 -0.084354 5.80547 0.253077 2.64396C0.387621 1.38333 1.38334 0.387617 2.64397 0.253074C5.80547 -0.0843578 8.97645 -0.0843578 12.1379 0.253074C13.3987 0.387617 14.3944 1.38333 14.5289 2.64396C14.8664 5.80547 14.8664 8.97644 14.5289 12.1379C14.3944 13.3987 13.3988 14.3944 12.1381 14.5289Z" fill="url(#paint0_linear_5741_5856)"/>
<path d="M13.725 3.17864C13.6056 2.06 12.7221 1.17639 11.6034 1.05695C8.79792 0.757642 5.98411 0.757642 3.17865 1.05695C2.06001 1.17639 1.17639 2.06 1.05696 3.17864C0.757649 5.98411 0.757649 8.79791 1.05696 11.6033C1.17639 12.722 2.06001 13.6056 3.17865 13.725C5.98411 14.0244 8.79792 14.0244 11.6033 13.725C12.722 13.6056 13.6056 12.722 13.725 11.6033C14.0244 8.79791 14.0244 5.98411 13.725 3.17864Z" fill="url(#paint1_linear_5741_5856)"/>
<path d="M0.2215 11.8315C0.23165 11.9337 0.242139 12.0359 0.253078 12.1381C0.387622 13.3987 1.38334 14.3944 2.64408 14.5289C5.80558 14.8664 8.97656 14.8664 12.1381 14.5289C13.3988 14.3944 14.3944 13.3987 14.529 12.1381C14.5399 12.0359 14.5504 11.9337 14.5606 11.8315H0.2215Z" fill="url(#paint2_linear_5741_5856)"/>
<path d="M14.3696 12.8064L4.83039 3.26706C4.61736 2.98906 4.28218 2.80963 3.90494 2.80963C3.26143 2.80963 2.73972 3.33123 2.73972 3.97474C2.73972 4.35209 2.91926 4.68727 3.19726 4.90019L12.7033 14.4064C13.4717 14.1507 14.084 13.5603 14.3696 12.8064Z" fill="url(#paint3_linear_5741_5856)"/>
<path d="M4.88363 5.90426H2.92614V11.9724L5.70363 14.7499C7.84889 14.8311 9.99562 14.7577 12.1379 14.5289C12.5125 14.489 12.8633 14.3725 13.1755 14.1961L4.88363 5.90426Z" fill="url(#paint4_linear_5741_5856)"/>
<path d="M11.5314 6.41255C11.1734 6.01997 10.6579 5.77367 10.0848 5.77367C9.17843 5.77367 8.59345 6.09204 8.24531 6.38763L7.86175 5.90426H6.05809V11.9724L8.84393 14.7582C9.94261 14.7225 11.0408 14.646 12.1381 14.529C13.3988 14.3944 14.3944 13.3987 14.529 12.1381C14.6189 11.2952 14.6847 10.4516 14.7267 9.60778L11.5314 6.41255Z" fill="url(#paint5_linear_5741_5856)"/>
<path d="M2.92625 5.90426H4.88363V11.9724H2.92625V5.90426Z" fill="white"/>
<path d="M10.0848 5.77367C8.65041 5.77367 8.02032 6.57089 7.86175 6.81359V5.90426H6.05809V11.9724H8.01558V8.92434C8.01558 8.04355 8.42102 7.35842 9.19005 7.35842C9.95897 7.35842 10.0848 8.21125 10.0848 9.25997V11.9724H12.0423V7.73115C12.0423 6.65006 11.1659 5.77367 10.0848 5.77367Z" fill="white"/>
<path d="M5.07005 3.97485C5.07005 4.61836 4.54845 5.13996 3.90494 5.13996C3.26143 5.13996 2.73972 4.61836 2.73972 3.97485C2.73972 3.33134 3.26143 2.80963 3.90494 2.80963C4.54845 2.80963 5.07005 3.33134 5.07005 3.97485Z" fill="white"/>
</g>
<path d="M20.2202 13.891V0.800105H22.1954V12.1907H28.1272V13.891H20.2202ZM32.3555 0.800105V13.891H30.3804V0.800105H32.3555ZM45.798 0.800105V13.891H43.9827L37.3286 4.29016H37.2071V13.891H35.232V0.800105H37.0601L43.7206 10.4137H43.842V0.800105H45.798ZM48.6792 13.891V0.800105H50.6544V7.05153H50.8142L56.3049 0.800105H58.7914L53.5116 6.69357L58.8106 13.891H56.4328L52.2012 8.04229L50.6544 9.81928V13.891H48.6792ZM60.6324 13.891V0.800105H68.8397V2.50039H62.6075V6.48903H68.4115V8.18292H62.6075V12.1907H68.9164V13.891H60.6324ZM75.716 13.891H71.4781V0.800105H75.8502C77.1329 0.800105 78.2344 1.06218 79.1549 1.58633C80.0754 2.10621 80.7806 2.85408 81.2707 3.82993C81.765 4.80153 82.0121 5.96701 82.0121 7.32638C82.0121 8.69002 81.7629 9.86189 81.2643 10.842C80.77 11.8221 80.054 12.5764 79.1165 13.1048C78.179 13.6289 77.0455 13.891 75.716 13.891ZM73.4532 12.1652H75.6073C76.6045 12.1652 77.4333 11.9777 78.0938 11.6027C78.7543 11.2234 79.2487 10.6758 79.5768 9.95991C79.9049 9.23974 80.069 8.36189 80.069 7.32638C80.069 6.29939 79.9049 5.42795 79.5768 4.71204C79.2529 3.99613 78.7692 3.4528 78.1258 3.08206C77.4823 2.71133 76.6833 2.52596 75.7288 2.52596H73.4532V12.1652ZM86.4434 0.800105V13.891H84.4683V0.800105H86.4434ZM99.8859 0.800105V13.891H98.0706L91.4164 4.29016H91.295V13.891H89.3199V0.800105H91.148L97.8085 10.4137H97.9299V0.800105H99.8859Z" fill="white"/>
<defs>
<linearGradient id="paint0_linear_5741_5856" x1="4.90792" y1="2.07832" x2="8.64672" y2="10.0776" gradientUnits="userSpaceOnUse">
<stop stop-color="#0077B5"/>
<stop offset="1" stop-color="#0066B2"/>
</linearGradient>
<linearGradient id="paint1_linear_5741_5856" x1="10.5173" y1="9.06804" x2="-10.9591" y2="-2.45267" gradientUnits="userSpaceOnUse">
<stop stop-color="#0066B2" stop-opacity="0"/>
<stop offset="1" stop-color="#07485E"/>
</linearGradient>
<linearGradient id="paint2_linear_5741_5856" x1="7.39102" y1="12.0054" x2="7.39102" y2="15.0948" gradientUnits="userSpaceOnUse">
<stop stop-color="#0066B2" stop-opacity="0"/>
<stop offset="1" stop-color="#07485E"/>
</linearGradient>
<linearGradient id="paint3_linear_5741_5856" x1="7.83431" y1="7.9042" x2="2.3073" y2="2.37719" gradientUnits="userSpaceOnUse">
<stop stop-color="#0066B2" stop-opacity="0"/>
<stop offset="1" stop-color="#07485E"/>
</linearGradient>
<linearGradient id="paint4_linear_5741_5856" x1="11.0793" y1="13.0391" x2="-0.050709" y2="7.82191" gradientUnits="userSpaceOnUse">
<stop stop-color="#0066B2" stop-opacity="0"/>
<stop offset="1" stop-color="#07485E"/>
</linearGradient>
<linearGradient id="paint5_linear_5741_5856" x1="13.7869" y1="14.1831" x2="6.0332" y2="6.42942" gradientUnits="userSpaceOnUse">
<stop stop-color="#0066B2" stop-opacity="0"/>
<stop offset="1" stop-color="#07485E"/>
</linearGradient>
<clipPath id="clip0_5741_5856">
<rect width="14.782" height="14.782" fill="white"/>
</clipPath>
</defs>
</svg>
