<svg width="37" height="38" viewBox="0 0 37 38" fill="none" xmlns="http://www.w3.org/2000/svg">
<g clip-path="url(#clip0_5726_5745)">
<path d="M36.9913 34.6578L34.0845 18.6429C34.0555 18.483 33.9564 18.3446 33.8143 18.2656L26.498 14.1963C26.403 14.1434 26.2966 14.1224 26.192 14.1305L27.5231 31.3014L27.4785 31.3213L36.2345 35.2495C36.3058 35.2814 36.3815 35.2971 36.4569 35.2971C36.5762 35.2971 36.6944 35.2579 36.7916 35.1818C36.9504 35.0578 37.0273 34.856 36.9913 34.6578Z" fill="#44C868"/>
<path d="M18.5 18.0865L11.0173 14.1892C10.9276 14.1424 10.8282 14.1233 10.7302 14.1299C10.7562 14.1283 10.7823 14.1284 10.8081 14.1305L9.47708 31.3014L18.2777 35.2496C18.3487 35.2814 18.4245 35.2972 18.5 35.2972V18.0865Z" fill="#44C868"/>
<path d="M10.8081 14.1306C10.7035 14.1225 10.5971 14.1435 10.5021 14.1963L3.1857 18.2656C3.04362 18.3446 2.94448 18.483 2.9155 18.6429L0.00875057 34.6578C-0.0272378 34.8559 0.049653 35.0577 0.208421 35.1819C0.305763 35.258 0.423917 35.2972 0.543156 35.2972C0.618529 35.2972 0.694336 35.2815 0.765518 35.2496L9.47383 31.3428L10.8081 14.1306Z" fill="#4CE166"/>
<path d="M26.1919 14.1302C26.12 14.1358 26.0488 14.1549 25.9828 14.1893L18.5 18.0866V35.2973H18.5001C18.5756 35.2973 18.6515 35.2815 18.7225 35.2496L27.5231 31.3015L26.1919 14.1302Z" fill="#4CE166"/>
<path d="M2.03458 23.4962L1.44409 26.7495L10.1878 22.1313L10.3908 19.5125L10.4245 19.0782L2.03458 23.4962Z" fill="#FFDB56"/>
<path d="M10.2665 21.1158L10.1878 22.1313L1.44409 26.7495L0.00875057 34.6578C-0.0272378 34.8559 0.049653 35.0577 0.208421 35.1819C0.305763 35.258 0.423917 35.2972 0.543156 35.2972C0.618529 35.2972 0.694336 35.2815 0.765518 35.2496L9.47383 31.3428L10.2665 21.1158Z" fill="#A8EEFC"/>
<path d="M18.5022 20.2332L10.4245 19.0781L10.1878 22.1313L18.5 34.7546V30.1644L13.5399 22.3541L18.5022 22.9476V20.2332Z" fill="#FFBB24"/>
<path d="M33.2383 17.9453L29.7237 15.9904L26.3964 16.7679L26.4381 17.3053L26.6024 19.4251L33.2383 17.9453Z" fill="#FFBB24"/>
<path d="M26.8975 23.2319L26.5824 19.167L26.3964 16.7679L18.5022 20.2332V22.9476L23.6588 20.7052L26.8975 23.2319Z" fill="#FFDB56"/>
<path d="M36.9913 34.6578L36.2612 30.635L26.6024 19.4251L26.8975 23.2319L36.803 35.1717C36.9536 35.0469 37.0264 34.851 36.9913 34.6578Z" fill="#FFBB24"/>
<path d="M18.5348 2.26682C14.3461 2.26682 10.9382 5.67183 10.9382 9.85718C10.9382 12.4462 12.1674 15.2258 14.5917 18.1187C16.3722 20.2436 18.1286 21.6102 18.2025 21.6674C18.3004 21.743 18.4176 21.7808 18.5349 21.7808C18.6521 21.7808 18.7694 21.743 18.8672 21.6674C18.9411 21.6102 20.6975 20.2436 22.478 18.1187C24.9023 15.2258 26.1315 12.4462 26.1315 9.85718C26.1314 5.67183 22.7235 2.26682 18.5348 2.26682ZM21.3481 9.85711C21.3481 11.4095 20.0885 12.6681 18.5348 12.6681C16.9811 12.6681 15.7215 11.4096 15.7215 9.85711C15.7215 8.30462 16.9811 7.04611 18.5348 7.04611C20.0885 7.04611 21.3481 8.30469 21.3481 9.85711Z" fill="#FF4A4A"/>
<path d="M18.5348 2.26682C18.2028 2.26682 17.8758 2.28835 17.5549 2.32983C21.2826 2.81163 24.1717 6.00353 24.1717 9.85718C24.1717 12.4462 22.9426 15.2258 20.5183 18.1187C19.3732 19.4851 18.239 20.5373 17.555 21.13C17.9347 21.4589 18.1762 21.647 18.2025 21.6674C18.3004 21.743 18.4176 21.7808 18.5349 21.7808C18.6521 21.7808 18.7694 21.743 18.8672 21.6674C18.9411 21.6102 20.6975 20.2436 22.4781 18.1187C24.9024 15.2258 26.1315 12.4462 26.1315 9.85718C26.1314 5.67183 22.7235 2.26682 18.5348 2.26682Z" fill="#E7343F"/>
<path d="M18.7225 35.2496L21.995 33.7814L18.5 30.1644V35.2972H18.5001C18.5756 35.2972 18.6514 35.2815 18.7225 35.2496Z" fill="#FFDB56"/>
<path d="M34.0844 18.6429C34.0555 18.483 33.9563 18.3446 33.8142 18.2656L33.2383 17.9452L26.6023 19.425L36.2611 30.635L34.0844 18.6429Z" fill="#1EA4E9"/>
<path d="M18.5 35.2972C18.5 35.2972 18.5 35.2972 18.5 35.2972V34.7546L10.1878 22.1313L9.47693 31.3015L18.2775 35.2496C18.3486 35.2815 18.4244 35.2972 18.5 35.2972Z" fill="#1EA4E9"/>
</g>
<defs>
<clipPath id="clip0_5726_5745">
<rect width="37" height="37" fill="white" transform="translate(0 0.282043)"/>
</clipPath>
</defs>
</svg>
